<svg width="711" height="588" viewBox="0 0 711 588" fill="none" xmlns="http://www.w3.org/2000/svg">
<rect width="337" height="252" rx="20" fill="white"/>
<rect x="24" y="32" width="60" height="60" rx="10" fill="#7594FB" fill-opacity="0.07"/>
<path d="M54 50.0283C55.8413 50.0199 57.6663 50.3744 59.3706 51.0715C61.0749 51.7686 62.6251 52.7948 63.9327 54.0913C65.2403 55.3878 66.2796 56.9293 66.9912 58.6276C67.7028 60.3259 68.0727 62.1478 68.08 63.9892C68.0843 67.1913 66.9762 70.2954 64.945 72.7708L63.9275 73.9717L62.0941 72.4225L62.8091 71.625L62.8825 71.5517C64.5473 69.6376 65.5334 67.2272 65.6875 64.695H62.8V62.3483H65.6141C65.3163 60.2587 64.4472 58.2919 63.1025 56.665L61.3883 58.3792L59.7291 56.72L61.4433 55.0058C59.6505 53.5519 57.4704 52.6562 55.1733 52.43V55.895H52.8266V52.43C50.5291 52.6547 48.3485 53.5505 46.5566 55.0058L48.2708 56.72L46.6116 58.3792L44.8975 56.665C43.5528 58.2919 42.6836 60.2587 42.3858 62.3483H45.2V64.695H42.285C42.4146 67.0926 43.3075 69.386 44.8333 71.24L45.8691 72.4225L44.1183 73.9717L43.3483 73.055C41.1094 70.5502 39.8811 67.3028 39.9016 63.9433C39.9283 60.2293 41.428 56.6776 44.0715 54.0686C46.7149 51.4595 50.2859 50.0064 54 50.0283ZM58.345 59.25L60.0041 60.9L56.2458 64.6492C56.3759 65.1449 56.3395 65.6696 56.1422 66.1425C55.9449 66.6155 55.5976 67.0105 55.1538 67.2668C54.71 67.5231 54.1943 67.6264 53.686 67.5609C53.1777 67.4954 52.7051 67.2646 52.3408 66.9042C52.1235 66.6878 51.9511 66.4307 51.8334 66.1475C51.7158 65.8644 51.6552 65.5608 51.6552 65.2542C51.6552 64.9475 51.7158 64.6439 51.8334 64.3608C51.9511 64.0776 52.1235 63.8205 52.3408 63.6042C52.6044 63.337 52.9292 63.1382 53.2869 63.0248C53.6447 62.9114 54.0247 62.8868 54.3941 62.9533L54.5958 62.9992L58.345 59.25Z" fill="#476BCC"/>
<rect x="377" width="334" height="252" rx="20" fill="white"/>
<rect x="401" y="32" width="60" height="60" rx="10" fill="#7594FB" fill-opacity="0.07"/>
<path fill-rule="evenodd" clip-rule="evenodd" d="M430.83 65.621L430.999 65.6211L431.378 65.6223C434.274 65.6414 440.892 65.9339 440.892 70.4195C440.892 74.8756 434.505 75.1662 431.423 75.1852L430.282 75.1852C427.386 75.1661 420.766 74.8739 420.766 70.394C420.766 65.9323 427.386 65.6413 430.282 65.6223L430.661 65.6211C430.719 65.621 430.776 65.621 430.83 65.621ZM430.83 67.871C427.266 67.871 423.016 68.309 423.016 70.394C423.016 72.4318 427.012 72.9083 430.504 72.9353L430.83 72.9365C434.394 72.9365 438.642 72.5 438.642 70.4195C438.642 68.3135 434.394 67.871 430.83 67.871ZM442.76 65.0123C446.395 65.5568 447.158 67.2638 447.158 68.6003C447.158 69.4163 446.837 70.9058 444.692 71.7233C444.56 71.7728 444.425 71.7968 444.292 71.7968C443.839 71.7968 443.411 71.5208 443.24 71.0723C443.018 70.4918 443.311 69.8408 443.891 69.6203C444.908 69.2333 444.908 68.8058 444.908 68.6003C444.908 67.9433 444.073 67.4843 442.426 67.2383C441.812 67.1453 441.388 66.5738 441.479 65.9573C441.571 65.3423 442.141 64.9328 442.76 65.0123ZM420.179 65.9573C420.271 66.5738 419.846 67.1453 419.233 67.2383C417.586 67.4843 416.75 67.9433 416.75 68.6003C416.75 68.8058 416.75 69.2318 417.769 69.6203C418.349 69.8408 418.642 70.4918 418.42 71.0723C418.249 71.5208 417.821 71.7968 417.368 71.7968C417.234 71.7968 417.099 71.7728 416.967 71.7233C414.821 70.9043 414.5 69.4148 414.5 68.6003C414.5 67.2653 415.264 65.5568 418.899 65.0123C419.519 64.9343 420.086 65.3423 420.179 65.9573ZM430.83 50C434.61 50 437.683 53.075 437.683 56.8535C437.683 60.632 434.61 63.707 430.83 63.707H430.789C428.959 63.701 427.245 62.984 425.961 61.688C424.674 60.3935 423.97 58.6745 423.978 56.849C423.978 53.075 427.051 50 430.83 50ZM430.83 52.25C428.292 52.25 426.228 54.3155 426.228 56.8535C426.223 58.0835 426.694 59.234 427.557 60.1025C428.419 60.971 429.568 61.4525 430.792 61.457L430.83 62.582V61.457C433.368 61.457 435.433 59.393 435.433 56.8535C435.433 54.3155 433.368 52.25 430.83 52.25ZM440.113 51.4693C442.75 51.9028 444.666 54.1588 444.666 56.8333C444.66 59.5258 442.648 61.8358 439.986 62.2093C439.933 62.2168 439.881 62.2198 439.83 62.2198C439.278 62.2198 438.796 61.8133 438.717 61.2508C438.631 60.6343 439.059 60.0658 439.675 59.9803C441.235 59.7613 442.413 58.4083 442.416 56.8303C442.416 55.2658 441.294 53.9428 439.747 53.6893C439.135 53.5888 438.72 53.0098 438.82 52.3963C438.922 51.7828 439.497 51.3718 440.113 51.4693ZM422.839 52.3963C422.94 53.0098 422.524 53.5888 421.912 53.6893C420.366 53.9428 419.244 55.2658 419.244 56.8333C419.247 58.4083 420.424 59.7628 421.983 59.9803C422.599 60.0658 423.027 60.6343 422.941 61.2508C422.862 61.8133 422.38 62.2198 421.828 62.2198C421.777 62.2198 421.725 62.2168 421.672 62.2093C419.01 61.8358 417 59.5258 416.994 56.8363C416.994 54.1588 418.909 51.9028 421.546 51.4693C422.178 51.3703 422.737 51.7858 422.839 52.3963Z" fill="#476BCC"/>
<rect y="314" width="337" height="252" rx="20" fill="white"/>
<rect x="24" y="346" width="60" height="60" rx="10" fill="#7594FB" fill-opacity="0.07"/>
<path fill-rule="evenodd" clip-rule="evenodd" d="M59.863 361C64.579 361 67.747 364.229 67.747 369.035V382.829C67.747 387.677 64.6765 390.83 59.9245 390.86L48.385 390.865C43.669 390.865 40.4995 387.635 40.4995 382.829V369.035C40.4995 364.186 43.57 361.034 48.322 361.006L59.8615 361H59.863ZM59.863 363.25L48.3295 363.256C44.8375 363.277 42.7495 365.437 42.7495 369.035V382.829C42.7495 386.452 44.857 388.615 48.3835 388.615L59.917 388.61C63.409 388.589 65.497 386.426 65.497 382.829V369.035C65.497 365.413 63.391 363.25 59.863 363.25ZM59.5737 381.211C60.1947 381.211 60.6987 381.715 60.6987 382.336C60.6987 382.957 60.1947 383.461 59.5737 383.461H48.7437C48.1227 383.461 47.6187 382.957 47.6187 382.336C47.6187 381.715 48.1227 381.211 48.7437 381.211H59.5737ZM59.5737 374.931C60.1947 374.931 60.6987 375.435 60.6987 376.056C60.6987 376.677 60.1947 377.181 59.5737 377.181H48.7437C48.1227 377.181 47.6187 376.677 47.6187 376.056C47.6187 375.435 48.1227 374.931 48.7437 374.931H59.5737ZM52.8757 368.666C53.4967 368.666 54.0007 369.17 54.0007 369.791C54.0007 370.412 53.4967 370.916 52.8757 370.916H48.7432C48.1222 370.916 47.6182 370.412 47.6182 369.791C47.6182 369.17 48.1222 368.666 48.7432 368.666H52.8757Z" fill="#476BCC"/>
<rect x="377" y="314" width="334" height="252" rx="20" fill="white"/>
<rect x="401" y="346" width="60" height="60" rx="10" fill="#7594FB" fill-opacity="0.07"/>
<path d="M431 364.028C432.841 364.02 434.666 364.374 436.371 365.071C438.075 365.769 439.625 366.795 440.933 368.091C442.24 369.388 443.28 370.929 443.991 372.628C444.703 374.326 445.073 376.148 445.08 377.989C445.084 381.191 443.976 384.295 441.945 386.771L440.927 387.972L439.094 386.422L439.809 385.625L439.882 385.552C441.547 383.638 442.533 381.227 442.687 378.695H439.8V376.348H442.614C442.316 374.259 441.447 372.292 440.102 370.665L438.388 372.379L436.729 370.72L438.443 369.006C436.651 367.552 434.47 366.656 432.173 366.43V369.895H429.827V366.43C427.529 366.655 425.349 367.55 423.557 369.006L425.271 370.72L423.612 372.379L421.897 370.665C420.553 372.292 419.684 374.259 419.386 376.348H422.2V378.695H419.285C419.415 381.093 420.308 383.386 421.833 385.24L422.869 386.422L421.118 387.972L420.348 387.055C418.109 384.55 416.881 381.303 416.902 377.943C416.928 374.229 418.428 370.678 421.071 368.069C423.715 365.46 427.286 364.006 431 364.028ZM435.345 373.25L437.004 374.9L433.246 378.649C433.376 379.145 433.339 379.67 433.142 380.143C432.945 380.615 432.598 381.011 432.154 381.267C431.71 381.523 431.194 381.626 430.686 381.561C430.178 381.495 429.705 381.265 429.341 380.904C429.123 380.688 428.951 380.431 428.833 380.148C428.716 379.864 428.655 379.561 428.655 379.254C428.655 378.948 428.716 378.644 428.833 378.361C428.951 378.078 429.123 377.82 429.341 377.604C429.604 377.337 429.929 377.138 430.287 377.025C430.645 376.911 431.025 376.887 431.394 376.953L431.596 376.999L435.345 373.25Z" fill="#476BCC"/>
</svg>
