<svg width="210" height="291" viewBox="0 0 210 291" fill="none" xmlns="http://www.w3.org/2000/svg">
<circle cx="4.12556" cy="4.12556" r="4.12556" fill="#7594FB"/>
<circle cx="54.3765" cy="4.12556" r="4.12556" fill="#7594FB"/>
<circle cx="104.628" cy="4.12556" r="4.12556" fill="#7594FB"/>
<circle cx="154.878" cy="4.12556" r="4.12556" fill="#7594FB"/>
<circle cx="205.129" cy="4.12556" r="4.12556" fill="#7594FB"/>
<circle cx="4.12556" cy="44.3768" r="4.12556" fill="#7594FB"/>
<circle cx="54.3765" cy="44.3765" r="4.12556" fill="#7594FB"/>
<circle cx="104.628" cy="44.3765" r="4.12556" fill="#7594FB"/>
<circle cx="154.878" cy="44.3765" r="4.12556" fill="#7594FB"/>
<circle cx="205.129" cy="44.3765" r="4.12556" fill="#7594FB"/>
<circle cx="4.12556" cy="84.628" r="4.12556" fill="#7594FB"/>
<circle cx="54.3765" cy="84.6278" r="4.12556" fill="#7594FB"/>
<circle cx="104.628" cy="84.6278" r="4.12556" fill="#7594FB"/>
<circle cx="154.878" cy="84.6278" r="4.12556" fill="#7594FB"/>
<circle cx="205.129" cy="84.6278" r="4.12556" fill="#7594FB"/>
<circle cx="4.12556" cy="124.879" r="4.12556" fill="#7594FB"/>
<circle cx="54.3765" cy="124.879" r="4.12556" fill="#7594FB"/>
<circle cx="104.628" cy="124.879" r="4.12556" fill="#7594FB"/>
<circle cx="154.878" cy="124.879" r="4.12556" fill="#7594FB"/>
<circle cx="205.129" cy="124.879" r="4.12556" fill="#7594FB"/>
<circle cx="4.12556" cy="165.13" r="4.12556" fill="#7594FB"/>
<circle cx="54.3765" cy="165.13" r="4.12556" fill="#7594FB"/>
<circle cx="104.628" cy="165.13" r="4.12556" fill="#7594FB"/>
<circle cx="154.878" cy="165.13" r="4.12556" fill="#7594FB"/>
<circle cx="205.129" cy="165.13" r="4.12556" fill="#7594FB"/>
<circle cx="4.12556" cy="205.381" r="4.12556" fill="#7594FB"/>
<circle cx="54.3765" cy="205.381" r="4.12556" fill="#7594FB"/>
<circle cx="104.628" cy="205.381" r="4.12556" fill="#7594FB"/>
<circle cx="154.878" cy="205.381" r="4.12556" fill="#7594FB"/>
<circle cx="205.129" cy="205.381" r="4.12556" fill="#7594FB"/>
<circle cx="4.12556" cy="245.632" r="4.12556" fill="#7594FB"/>
<circle cx="54.3765" cy="245.632" r="4.12556" fill="#7594FB"/>
<circle cx="104.628" cy="245.632" r="4.12556" fill="#7594FB"/>
<circle cx="154.878" cy="245.632" r="4.12556" fill="#7594FB"/>
<circle cx="205.129" cy="245.632" r="4.12556" fill="#7594FB"/>
<circle cx="4.12556" cy="285.883" r="4.12556" fill="#7594FB"/>
<circle cx="54.3765" cy="285.883" r="4.12556" fill="#7594FB"/>
<circle cx="104.628" cy="285.883" r="4.12556" fill="#7594FB"/>
<circle cx="154.878" cy="285.883" r="4.12556" fill="#7594FB"/>
<circle cx="205.129" cy="285.883" r="4.12556" fill="#7594FB"/>
</svg>
