<svg width="814" height="81" viewBox="0 0 814 81" fill="none" xmlns="http://www.w3.org/2000/svg">
<path d="M744.77 40.0741V38.0856C744.781 37.8148 744.76 37.5438 744.708 37.2778C744.605 36.752 744.34 36.2718 743.95 35.9042C743.561 35.5365 743.067 35.2999 742.537 35.2272C741.669 35.0025 740.764 34.9583 739.878 35.0972C738.992 35.2361 738.144 35.5553 737.386 36.035C737.177 36.1949 736.932 36.3011 736.673 36.3445C736.413 36.3878 736.147 36.3669 735.897 36.2835C735.617 36.1913 735.365 36.0274 735.167 35.8079C734.97 35.5884 734.833 35.3209 734.77 35.0321C734.707 34.7433 734.721 34.4431 734.81 34.1612C734.899 33.8793 735.06 33.6256 735.277 33.4251C735.84 32.8402 736.546 32.4119 737.324 32.1823C739.607 31.3375 742.083 31.165 744.46 31.6852C745.913 31.9554 747.216 32.7517 748.121 33.9222C748.888 35.0106 749.28 36.3193 749.238 37.6506V46.8473C749.246 47.1451 749.193 47.4413 749.082 47.7178C748.972 47.9943 748.806 48.2452 748.595 48.4553C748.384 48.6653 748.132 48.83 747.856 48.9392C747.579 49.0485 747.283 49.1 746.986 49.0906C746.715 49.1008 746.445 49.08 746.179 49.0284C745.77 48.9394 745.404 48.7113 745.144 48.3828C744.884 48.0542 744.745 47.6456 744.752 47.2264C744.69 47.2264 744.69 47.2264 744.628 47.2885C743.511 48.4451 742.01 49.1525 740.408 49.277C739.099 49.464 737.763 49.2699 736.561 48.7177C735.533 48.2518 734.679 47.4715 734.121 46.489C733.564 45.5065 733.332 44.3723 733.459 43.2494C733.499 42.0329 733.971 40.8706 734.79 39.971C735.608 39.0714 736.72 38.4933 737.926 38.3404C739.858 37.924 741.876 38.2571 743.573 39.2725C743.773 39.3977 743.961 39.5435 744.131 39.7074C744.362 39.7948 744.578 39.9186 744.77 40.0741ZM744.77 43.6782V43.0568C744.798 42.8758 744.772 42.6907 744.694 42.5248C744.617 42.3589 744.492 42.2196 744.336 42.1247C743.666 41.6077 742.874 41.273 742.037 41.1532C741.2 41.0335 740.346 41.1326 739.558 41.4411C739.091 41.5929 738.686 41.8938 738.406 42.2978C738.126 42.7019 737.986 43.1867 738.007 43.6782C738.021 44.1787 738.19 44.6625 738.49 45.0631C738.79 45.4637 739.206 45.7613 739.682 45.9152C740.479 46.1927 741.335 46.2569 742.164 46.1016C743.021 45.999 743.824 45.6295 744.46 45.0453C744.575 44.9614 744.665 44.8475 744.72 44.716C744.774 44.5845 744.792 44.4404 744.77 44.2996C744.739 44.0936 744.739 43.8841 744.77 43.6782Z" fill="#5F7681"/>
<path d="M759.476 31.3745C761.184 31.337 762.879 31.6765 764.44 32.3687C764.904 32.579 765.325 32.8741 765.681 33.2387C765.916 33.4404 766.084 33.7093 766.161 34.0093C766.239 34.3093 766.223 34.6259 766.116 34.9165C766.014 35.2172 765.833 35.4851 765.593 35.6927C765.353 35.9002 765.062 36.0399 764.751 36.0971C764.528 36.1471 764.297 36.1508 764.073 36.108C763.849 36.0653 763.636 35.977 763.447 35.8486C762.257 35.1724 760.907 34.829 759.538 34.8543C759.155 34.8299 758.77 34.8834 758.407 35.0115C758.045 35.1397 757.712 35.3398 757.429 35.6C757.281 35.7155 757.167 35.869 757.1 36.044C757.032 36.219 757.014 36.4091 757.045 36.594C757.077 36.7788 757.159 36.9516 757.281 37.0939C757.403 37.2362 757.561 37.3427 757.739 37.4021C758.414 37.6942 759.123 37.9029 759.849 38.0235C761.132 38.2673 762.396 38.5995 763.634 39.0177C764.55 39.34 765.379 39.8719 766.054 40.5712C766.466 41.0554 766.773 41.6206 766.955 42.2306C767.136 42.8405 767.189 43.4818 767.108 44.1132C767.041 45.0958 766.688 46.0372 766.092 46.8212C765.497 47.6052 764.685 48.1975 763.758 48.5251C762.361 49.0883 760.854 49.3222 759.352 49.2086C757.686 49.1697 756.043 48.8111 754.512 48.1523C753.977 47.9158 753.492 47.5783 753.085 47.158C752.092 46.0395 752.899 44.486 754.202 44.1753C754.652 44.1056 755.112 44.1934 755.505 44.4239C756.704 45.1245 758.035 45.5688 759.414 45.7288C760.188 45.8347 760.976 45.7494 761.71 45.4803C762.024 45.3928 762.302 45.2068 762.503 44.9496C762.704 44.6924 762.818 44.3775 762.827 44.051C762.855 43.8701 762.828 43.6849 762.751 43.519C762.674 43.3531 762.549 43.2139 762.393 43.1189C761.947 42.8491 761.467 42.6401 760.965 42.4975C759.786 42.1868 758.545 41.9383 757.366 41.6897C756.515 41.5101 755.698 41.1954 754.946 40.7576C752.154 39.2041 752.154 35.4136 754.016 33.4873C755.099 32.3999 756.523 31.7196 758.049 31.5609C758.518 31.4528 758.996 31.3903 759.476 31.3745Z" fill="#5F7681"/>
<path d="M731.305 40.0742C731.243 42.7462 730.56 44.9211 728.823 46.661C727.608 47.9186 726.019 48.7472 724.293 49.0223C722.246 49.4549 720.113 49.2152 718.212 48.3388C716.984 47.777 715.912 46.9226 715.09 45.8502C714.268 44.7778 713.721 43.5201 713.496 42.1869C713.226 40.9893 713.202 39.7489 713.426 38.5416C713.65 37.3343 714.117 36.1854 714.8 35.1651C715.441 34.1608 716.297 33.3112 717.306 32.6773C718.314 32.0435 719.45 31.641 720.632 31.4989C722.495 31.1753 724.411 31.3909 726.155 32.1203C727.485 32.6619 728.649 33.544 729.531 34.6782C730.413 35.8125 730.982 37.159 731.181 38.5828C731.243 39.1483 731.243 39.7013 731.305 40.0742ZM717.964 40.2606C717.937 41.1162 718.107 41.9666 718.461 42.7462C718.78 43.438 719.283 44.0292 719.914 44.4557C720.545 44.8823 721.28 45.1281 722.04 45.1664C722.8 45.2048 723.557 45.0344 724.227 44.6735C724.898 44.3127 725.457 43.7751 725.845 43.119C726.398 42.2202 726.685 41.183 726.674 40.1273C726.663 39.0717 726.354 38.0407 725.783 37.1536C725.447 36.6169 724.992 36.1647 724.453 35.8321C723.915 35.4994 723.308 35.2952 722.678 35.2351C722.048 35.175 721.413 35.2608 720.822 35.4857C720.23 35.7106 719.698 36.0687 719.267 36.5322C718.368 37.5598 717.901 38.8959 717.964 40.2606Z" fill="#5F7681"/>
<path d="M771.266 35.7241H770.273C769.755 35.7241 769.257 35.5178 768.891 35.1508C768.524 34.7837 768.318 34.2858 768.318 33.7667C768.318 33.2475 768.524 32.7497 768.891 32.3826C769.257 32.0155 769.755 31.8093 770.273 31.8093H771.328V28.9508C771.405 28.3892 771.689 27.8766 772.123 27.5129C772.557 27.1493 773.112 26.9607 773.677 26.984C774.243 27.0073 774.78 27.2407 775.183 27.6388C775.586 28.0369 775.826 28.5711 775.858 29.1373V31.8093H777.781C778.289 31.8642 778.755 32.1161 779.08 32.511C779.405 32.9059 779.562 33.4123 779.519 33.922C779.469 34.4044 779.247 34.8527 778.894 35.1839C778.54 35.5152 778.079 35.7071 777.595 35.7241H775.858V43.4978C775.835 43.8698 775.94 44.2382 776.154 44.543C776.368 44.8477 776.679 45.0707 777.036 45.1755C777.281 45.227 777.531 45.2479 777.781 45.2377C778.093 45.2088 778.407 45.2592 778.694 45.384C778.981 45.5089 779.232 45.7042 779.424 45.952C779.616 46.1998 779.742 46.492 779.791 46.8016C779.84 47.1112 779.81 47.4282 779.705 47.7233C779.644 47.935 779.542 48.1323 779.403 48.3032C779.264 48.4741 779.093 48.615 778.898 48.7175C778.196 49.0359 777.435 49.2051 776.664 49.2146C775.717 49.314 774.76 49.1862 773.872 48.8418C773.216 48.5969 772.645 48.1676 772.226 47.6054C771.808 47.0433 771.561 46.3722 771.514 45.6727C771.462 45.2813 771.442 44.8866 771.452 44.492V36.1591C771.388 36.1067 771.338 36.0399 771.306 35.9642C771.274 35.8885 771.26 35.8062 771.266 35.7241Z" fill="#5F7681"/>
<path d="M703.383 31.8092V29.3236C703.372 29.1145 703.393 28.9051 703.445 28.7022C703.571 28.1564 703.894 27.6767 704.352 27.3554C704.811 27.0342 705.371 26.8941 705.927 26.9623C706.467 27.0172 706.968 27.2693 707.334 27.6704C707.7 28.0716 707.906 28.5937 707.912 29.1372V31.7471H709.774C710.027 31.7688 710.274 31.841 710.5 31.9595C710.725 32.0781 710.925 32.2405 711.086 32.4373C711.248 32.6341 711.369 32.8614 711.442 33.1056C711.515 33.3499 711.539 33.6063 711.511 33.8598C711.473 34.3462 711.254 34.8007 710.898 35.1341C710.542 35.4674 710.075 35.6557 709.588 35.6619H707.85V43.1808C707.84 43.3899 707.861 43.5993 707.912 43.8022C707.962 44.1909 708.155 44.5469 708.453 44.8C708.752 45.0531 709.135 45.1848 709.526 45.1693C709.88 45.1763 710.234 45.2179 710.58 45.2935C710.918 45.4109 711.211 45.6284 711.422 45.9171C711.632 46.2057 711.75 46.5518 711.759 46.9092C711.824 47.2703 711.768 47.6427 711.6 47.9685C711.431 48.2944 711.16 48.5555 710.829 48.7112C710.277 48.9502 709.69 49.0972 709.091 49.1462C708.218 49.2392 707.336 49.1761 706.485 48.9598C705.674 48.78 704.942 48.3454 704.395 47.7194C703.848 47.0934 703.515 46.3088 703.445 45.48C703.395 45.1302 703.374 44.7768 703.383 44.4236V35.5997H702.309C702.052 35.6047 701.797 35.5587 701.558 35.4644C701.319 35.3701 701.101 35.2294 700.916 35.0503C700.731 34.8713 700.584 34.6574 700.482 34.4211C700.381 34.1848 700.327 33.9307 700.323 33.6734C700.323 33.1566 700.524 32.66 700.883 32.2888C701.242 31.9177 701.731 31.7011 702.247 31.6849C702.616 31.7895 703 31.8315 703.383 31.8092Z" fill="#5F7681"/>
<path d="M695.626 33.425C696.743 34.0464 697.053 35.1028 697.177 36.2213C697.446 38.51 697.529 40.8167 697.425 43.1188C697.425 44.4237 697.363 45.7287 697.239 47.0336C697.171 47.6399 697.068 48.2416 696.929 48.8357C696.681 49.8921 695.936 50.327 694.943 50.5756C693.921 50.7707 692.875 50.8126 691.841 50.6999C689.979 50.5135 688.118 50.327 686.256 50.0785C684.32 49.8301 682.36 49.8301 680.424 50.0785L674.156 51.0106C673.394 51.1038 672.623 51.1038 671.86 51.0106C671.438 50.9521 671.037 50.7914 670.691 50.5423C670.345 50.2933 670.065 49.9634 669.875 49.5814C669.333 48.6479 668.995 47.6102 668.882 46.5365C668.593 44.6873 668.489 42.8138 668.572 40.9439C668.627 38.7906 669.069 36.6648 669.875 34.6678C670.241 33.8965 670.655 33.1493 671.116 32.4308C670.894 32.2172 670.687 31.9888 670.495 31.7472C669.879 31.1685 669.509 30.3739 669.463 29.529C669.417 28.684 669.698 27.8538 670.247 27.211C670.98 26.2716 671.913 25.5074 672.977 24.974C675.446 23.6112 678.173 22.7854 680.982 22.5505C684.605 22.1734 688.264 22.754 691.593 24.2345C692.95 24.8129 694.19 25.6341 695.254 26.658C696.356 27.7243 697.02 29.1651 697.115 30.6971C697.191 31.1753 697.126 31.6653 696.927 32.1068C696.729 32.5484 696.406 32.9223 695.998 33.1827C695.936 33.3629 695.812 33.3629 695.626 33.425ZM692.585 33.0522C692.648 32.99 692.648 32.99 692.71 32.99C693.112 32.7672 693.411 32.3934 693.539 31.9507C693.666 31.508 693.614 31.0326 693.392 30.6287C692.998 29.7908 692.426 29.0487 691.717 28.4538C690.639 27.6346 689.419 27.0235 688.118 26.6518C685.592 25.8557 682.919 25.6433 680.299 26.0304C678.706 26.2378 677.156 26.6993 675.708 27.3974C674.705 27.8445 673.877 28.6085 673.35 29.5723C673.095 30.0076 673.011 30.5223 673.114 31.0162C673.217 31.5101 673.5 31.9479 673.908 32.2443C674.066 32.3529 674.211 32.4778 674.343 32.6172C674.032 33.1143 673.66 33.5493 673.412 34.0464C672.806 35.2772 672.407 36.6 672.233 37.9612C671.913 39.7234 671.809 41.5179 671.923 43.3052C671.983 44.2937 672.281 45.2529 672.791 46.1015C673.003 46.5046 673.313 46.8473 673.693 47.0973C674.073 47.3473 674.51 47.4965 674.963 47.5307C675.36 47.5511 675.758 47.5091 676.142 47.4065L680.299 46.4744C681.726 46.1645 683.195 46.1015 684.643 46.2879C686.194 46.4744 687.745 46.7229 689.359 46.9093C690.304 47.0542 691.263 47.0751 692.213 46.9715C692.755 46.9296 693.265 46.7033 693.661 46.3302C694.056 45.9571 694.311 45.4597 694.385 44.9209C694.725 42.9937 694.85 41.0346 694.757 39.0797C694.735 37.8872 694.59 36.7002 694.323 35.5378C694.013 34.4814 693.622 33.6114 692.585 33.0522Z" fill="#5F7681"/>
<path d="M551.797 35.1158C552.995 35.1158 554.131 35.1158 555.266 35.1158C555.266 35.7474 555.266 36.3789 555.266 37.0737C555.329 37.0737 555.329 37.1368 555.392 37.1368C555.897 36.2526 556.527 35.5579 557.536 35.3684C558.419 35.1789 559.428 35.1789 560.437 35.0526C560.374 35.2421 560.374 35.3684 560.374 35.4947C559.996 36.4421 559.681 37.3895 559.302 38.3368C559.239 38.5895 559.113 38.7158 558.798 38.6526C558.608 38.6526 558.419 38.6526 558.167 38.6526C556.401 38.6526 555.455 39.5368 555.455 41.3053C555.392 43.4527 555.455 45.6 555.392 47.7474C555.392 47.9369 555.392 48.1264 555.392 48.3158C554.194 48.3158 552.995 48.3158 551.797 48.3158C551.797 43.8948 551.797 39.5368 551.797 35.1158Z" fill="#5F7681"/>
<path d="M564.915 48.3155C563.717 48.3155 562.582 48.3155 561.384 48.3155C561.384 46.6734 561.384 45.0944 561.384 43.5155C561.384 41.9365 561.384 40.2944 561.384 38.6523C560.942 38.6523 560.564 38.6523 560.059 38.6523C560.374 37.7049 560.753 36.8207 561.068 35.9997C561.384 35.1154 561.384 35.1786 562.33 35.1786C563.212 35.1786 564.095 35.1786 564.978 35.1786C564.915 39.5365 564.915 43.8944 564.915 48.3155Z" fill="#5F7681"/>
<path d="M502.605 43.0102C499.262 43.0102 495.92 43.0102 492.577 43.0102C492.577 43.8945 493.46 44.8418 494.595 45.2208C496.046 45.6629 497.875 45.5997 499.199 43.5787C500.145 44.1471 501.028 44.6524 501.974 45.2208C500.65 47.8734 497.118 49.3261 493.649 48.2524C490.307 47.1787 488.352 43.5787 489.235 40.105C490.117 36.5681 493.649 34.3576 497.181 34.9892C500.65 35.6207 503.109 38.5892 502.605 43.0102ZM492.703 40.105C494.848 40.105 496.866 40.105 498.947 40.105C498.758 39.0313 497.623 38.1471 496.361 38.0839C494.658 37.8944 493.271 38.6523 492.703 40.105Z" fill="#5F7681"/>
<path d="M515.723 48.3158C514.462 48.3158 513.327 48.3158 512.065 48.3158C512.065 48.1263 512.065 47.9368 512.065 47.8105C512.065 45.4737 512.065 43.1368 512.065 40.8C512.065 40.4842 512.065 40.2315 512.002 39.9158C511.813 38.7789 511.056 38.021 510.047 37.9578C508.723 37.8315 507.777 38.4 507.398 39.6C507.209 40.1052 507.146 40.7368 507.146 41.2421C507.146 43.3895 507.146 45.5368 507.146 47.6842C507.146 47.8737 507.146 48.0632 507.146 48.2526C505.948 48.2526 504.813 48.2526 503.614 48.2526C503.614 43.8947 503.614 39.5368 503.614 35.1157C504.749 35.1157 505.948 35.1157 507.146 35.1157C507.146 35.5578 507.146 35.9368 507.146 36.5052C507.398 36.3157 507.524 36.1263 507.714 35.9999C509.227 34.6736 510.993 34.4841 512.822 35.1157C514.588 35.7473 515.471 37.1368 515.723 38.9052C515.786 39.4105 515.849 39.9158 515.849 40.421C515.849 42.821 515.849 45.221 515.849 47.6211C515.723 47.8737 515.723 48.0632 515.723 48.3158Z" fill="#5F7681"/>
<path d="M579.737 48.3156C578.538 48.3156 577.403 48.3156 576.205 48.3156C576.205 47.8735 576.205 47.4313 576.205 46.9261C576.079 46.9892 576.016 47.0524 575.953 47.0524C573.808 49.2629 570.213 48.9471 567.943 46.8629C566.177 45.2208 565.673 43.0734 565.862 40.7997C566.051 38.8418 566.871 37.2629 568.448 36.0629C570.592 34.4839 573.998 34.3576 575.953 36.2524C575.953 36.2524 576.016 36.2524 576.079 36.3155C576.079 33.9155 576.079 31.5155 576.079 29.1155C577.277 29.1155 578.475 29.1155 579.674 29.1155C579.737 35.4945 579.737 41.8734 579.737 48.3156ZM576.268 41.684C576.268 39.726 574.817 38.1471 572.862 38.1471C570.844 38.1471 569.331 39.6629 569.331 41.684C569.331 43.6419 570.907 45.284 572.862 45.284C574.817 45.284 576.268 43.705 576.268 41.684Z" fill="#5F7681"/>
<path d="M526.949 48.2528C526.949 47.8107 526.949 47.3686 526.949 46.9897C526.886 46.9897 526.823 46.9897 526.823 46.9897C524.805 49.137 521.462 49.0739 519.192 47.3055C517.048 45.6633 516.417 43.3896 516.669 40.8633C516.858 38.6528 517.868 36.8844 519.76 35.7475C521.904 34.4843 524.868 34.4843 526.949 36.3791C526.949 33.9159 526.949 31.5159 526.949 29.0527C528.211 29.0527 529.346 29.0527 530.544 29.0527C530.544 35.4317 530.544 41.8739 530.544 48.2528C529.346 48.2528 528.211 48.2528 526.949 48.2528ZM527.076 41.6844C527.076 39.6633 525.625 38.1475 523.67 38.1475C521.652 38.1475 520.138 39.7265 520.138 41.6844C520.138 43.7054 521.715 45.2212 523.67 45.2212C525.562 45.2844 527.076 43.7054 527.076 41.6844Z" fill="#5F7681"/>
<path d="M550.031 33.726C548.959 34.3576 547.887 34.9892 546.878 35.6208C546.374 35.0524 545.995 34.4208 545.491 33.9155C542.589 31.1366 536.787 31.9576 535.337 36.9471C534.075 41.2419 537.355 45.284 541.77 45.0314C544.103 44.905 545.743 43.8313 546.689 41.684C546.752 41.4945 546.815 41.305 546.941 40.9892C546.752 40.9892 546.563 40.9892 546.374 40.9892C544.671 40.9892 543.031 40.9892 541.328 40.9892C540.95 40.9892 540.824 40.8629 540.824 40.484C540.824 39.5366 540.824 38.5261 540.824 37.5155C544.166 37.5155 547.509 37.5155 550.788 37.5155C551.293 42.8208 548.455 47.3682 543.536 48.3787C538.049 49.5156 532.499 46.3577 531.553 40.2945C530.733 35.0524 533.886 30.126 539.121 29.0523C543.094 28.2313 547.383 29.6208 549.716 33.2208C549.779 33.3471 549.905 33.5366 550.031 33.726Z" fill="#5F7681"/>
<path d="M563.213 33.0944C562.015 33.0944 561.069 32.1471 561.006 30.9471C561.006 29.7471 561.952 28.7997 563.213 28.7997C564.411 28.7997 565.357 29.7471 565.357 30.9471C565.357 32.0839 564.348 33.0944 563.213 33.0944Z" fill="#5F7681"/>
<path d="M474.035 45.0946C475.107 44.2104 476.243 43.3893 477.315 42.5051C477.756 43.0104 478.198 43.5788 478.702 43.9578C479.774 44.842 480.973 45.2209 482.36 44.9683C483.495 44.7157 484.315 43.8946 484.441 42.6946C484.504 41.8735 484.126 41.3051 483.495 40.9262C482.675 40.5472 481.792 40.2314 480.973 39.9156C480.153 39.5999 479.27 39.3472 478.45 39.0314C476.243 38.2104 474.981 36.7577 474.981 34.3577C474.981 32.0209 476.179 30.3788 478.261 29.4314C481.036 28.1682 485.261 28.5472 487.847 31.5788C486.838 32.3367 485.892 33.0946 484.883 33.8525C484.757 33.7261 484.694 33.663 484.631 33.5367C483.558 32.2103 481.729 31.7051 480.216 32.2735C479.396 32.5893 478.891 33.1577 478.828 34.0419C478.765 34.863 479.207 35.4314 479.9 35.7472C480.973 36.2525 482.108 36.6314 483.243 37.0104C484.441 37.4525 485.703 37.8946 486.649 38.7788C488.352 40.2946 488.793 42.8209 487.721 45.0315C486.775 47.0525 485.072 48.1894 482.865 48.5052C479.459 48.9473 476.558 47.9367 474.224 45.3472C474.161 45.2841 474.098 45.2209 474.035 45.0946Z" fill="#5F7681"/>
<path opacity="0.62" d="M469.936 24.6951H453.98V40.6741H469.936V24.6951Z" fill="#5F7681"/>
<path opacity="0.62" d="M462.052 32.7161H446.412V48.1267H462.052V32.7161Z" fill="#5F7681"/>
<path fill-rule="evenodd" clip-rule="evenodd" d="M247.59 45.979H227.219C226.768 45.979 226.335 45.7994 226.015 45.4796C225.696 45.1598 225.517 44.726 225.517 44.2738C225.517 43.8215 225.696 43.3877 226.015 43.0679C226.335 42.7481 226.768 42.5685 227.219 42.5685H247.59C248.042 42.5685 248.475 42.7481 248.794 43.0679C249.114 43.3877 249.293 43.8215 249.293 44.2738C249.293 44.726 249.114 45.1598 248.794 45.4796C248.475 45.7994 248.042 45.979 247.59 45.979Z" fill="#5F7681"/>
<path fill-rule="evenodd" clip-rule="evenodd" d="M243.238 56.4003C241.595 56.3953 239.961 56.1615 238.382 55.7055C238.167 55.6392 237.966 55.531 237.793 55.3872C237.619 55.2434 237.476 55.0667 237.37 54.8673C237.157 54.4646 237.113 53.9937 237.247 53.5582C237.381 53.1227 237.682 52.7582 238.084 52.545C238.486 52.3318 238.956 52.2873 239.391 52.4213C240.639 52.7993 241.935 52.9909 243.238 52.9897C246.029 52.9777 248.742 52.0692 250.978 50.398C253.215 48.7267 254.857 46.3809 255.663 43.7055C255.805 43.2757 256.107 42.9175 256.507 42.7056C256.906 42.4938 257.372 42.4447 257.807 42.5686C258.236 42.711 258.594 43.0138 258.805 43.4139C259.017 43.8141 259.066 44.2806 258.942 44.716C257.933 48.0991 255.858 51.0647 253.028 53.1704C250.198 55.2761 246.764 56.4091 243.238 56.4003Z" fill="#5F7681"/>
<path fill-rule="evenodd" clip-rule="evenodd" d="M259.258 37.3263H238.887C238.436 37.3263 238.003 37.1467 237.683 36.8269C237.364 36.5071 237.185 36.0733 237.185 35.6211C237.185 35.1688 237.364 34.735 237.683 34.4152C238.003 34.0954 238.436 33.9158 238.887 33.9158H259.258C259.482 33.9149 259.704 33.9585 259.911 34.0439C260.118 34.1293 260.306 34.2549 260.464 34.4134C260.623 34.5719 260.748 34.7602 260.833 34.9675C260.918 35.1748 260.962 35.3969 260.961 35.6211C260.953 36.0708 260.771 36.4998 260.453 36.8179C260.136 37.136 259.707 37.3182 259.258 37.3263Z" fill="#5F7681"/>
<path fill-rule="evenodd" clip-rule="evenodd" d="M282.404 39.2215L279.629 38.6531C278.241 38.3373 277.484 37.5163 277.484 36.2531C277.484 34.611 278.872 33.4742 280.827 33.4742C281.62 33.4414 282.402 33.6711 283.051 34.1277C283.701 34.5843 284.183 35.2425 284.422 36.0005C284.447 36.0979 284.495 36.1883 284.56 36.2649C284.626 36.3414 284.708 36.4022 284.8 36.4426C284.985 36.4947 285.176 36.516 285.368 36.5057L286.818 36.0005C286.907 35.9735 286.988 35.9287 287.059 35.869C287.129 35.8093 287.187 35.7359 287.228 35.6532C287.27 35.5705 287.294 35.4803 287.299 35.388C287.305 35.2957 287.291 35.2032 287.26 35.1163C286.881 33.7899 285.494 30.6952 280.827 30.6952C277.358 30.6952 274.394 33.3478 274.394 36.5057C274.394 39.2215 276.16 41.2426 279.124 41.8742L281.773 42.4426C283.413 42.7584 284.296 43.7689 284.296 45.0321C284.296 46.6742 282.908 47.6847 280.764 47.6847C279.799 47.7288 278.851 47.4198 278.097 46.8156C277.342 46.2113 276.833 45.3529 276.664 44.4005C276.629 44.2172 276.524 44.055 276.37 43.9488C276.217 43.8425 276.028 43.8006 275.845 43.8321C275.781 43.8321 275.781 43.8321 275.781 43.8953L274.142 44.4005C273.976 44.4585 273.836 44.5718 273.744 44.7213C273.652 44.8708 273.614 45.0475 273.637 45.2216C274.142 47.8742 276.286 50.6532 280.827 50.6532C284.674 50.6532 287.512 48.1268 287.512 44.8426C287.512 41.9373 285.683 39.9163 282.404 39.2215ZM298.927 41.7479C298.927 41.811 298.927 41.811 298.864 41.8742C298.801 41.9373 298.801 41.9373 298.738 41.9373H292.81C292.747 41.9373 292.747 41.8742 292.684 41.8742C292.621 41.8742 292.621 41.811 292.621 41.7479C292.759 41.0366 293.147 40.3981 293.713 39.9468C294.279 39.4954 294.988 39.2607 295.711 39.2847C297.477 39.2847 298.675 40.2321 298.927 41.7479ZM295.711 36.5057C292.621 36.5057 289.404 39.0952 289.404 43.4531C289.369 44.4087 289.53 45.3613 289.877 46.2521C290.224 47.1429 290.75 47.953 291.422 48.6321C292.027 49.2361 292.745 49.7144 293.535 50.0396C294.326 50.3647 295.172 50.5303 296.026 50.5269C297.258 50.574 298.474 50.2422 299.511 49.5759C300.549 48.9097 301.358 47.941 301.828 46.8005C301.892 46.6164 301.892 46.4163 301.828 46.2321C301.788 46.1397 301.727 46.0577 301.651 45.992C301.575 45.9264 301.484 45.8789 301.387 45.8532L300.063 45.411C299.894 45.3569 299.713 45.3654 299.55 45.4351C299.388 45.5047 299.256 45.6308 299.18 45.79C298.939 46.42 298.502 46.9562 297.935 47.3199C297.367 47.6836 296.698 47.8557 296.026 47.8111C295.166 47.8248 294.332 47.5143 293.689 46.9411C293.047 46.3678 292.643 45.5738 292.557 44.7163C292.557 44.6532 292.557 44.6531 292.621 44.59C292.655 44.5557 292.699 44.5335 292.747 44.5268H301.387C301.57 44.5252 301.746 44.4515 301.876 44.3215C302.005 44.1916 302.079 44.0158 302.081 43.8321V43.4531C302.081 39.1584 299.621 36.5057 295.711 36.5057ZM310.406 46.8637C308.324 46.8637 307.063 45.411 307.063 43.1374C307.063 40.8637 308.387 39.411 310.406 39.411C312.424 39.411 313.748 40.9268 313.748 43.1374C313.748 45.3479 312.361 46.8637 310.406 46.8637ZM315.893 36.9479H314.316C314.22 36.9502 314.126 36.9719 314.038 37.0116C313.951 37.0514 313.873 37.1083 313.808 37.1791C313.743 37.2498 313.693 37.3329 313.661 37.4234C313.63 37.5139 313.616 37.61 313.622 37.7057C313.615 37.7536 313.593 37.798 313.559 37.8321C313.496 37.8321 313.496 37.8952 313.433 37.8321C312.49 37.0654 311.304 36.6621 310.09 36.6952C306.558 36.6952 304.036 39.411 304.036 43.1374C304.036 46.8637 306.558 49.5795 310.09 49.5795C311.315 49.6102 312.507 49.1823 313.433 48.3795C313.466 48.3434 313.511 48.3209 313.559 48.3163C313.622 48.3163 313.622 48.3795 313.622 48.4426V49.0111C313.622 51.6005 312.487 52.8006 310.027 52.8006C309.314 52.8236 308.614 52.5964 308.05 52.1582C307.486 51.7201 307.092 51.0984 306.937 50.4005C306.869 50.2297 306.761 50.0779 306.622 49.9584C306.54 49.9009 306.445 49.8649 306.346 49.8539C306.247 49.8429 306.146 49.8571 306.054 49.8953L304.54 50.2111C304.348 50.2534 304.181 50.3702 304.074 50.5359C303.968 50.7016 303.931 50.9027 303.973 51.0953C304.54 53.7479 306.937 55.5795 310.027 55.5795C312.298 55.5795 314.064 54.8848 315.199 53.4953C316.199 52.1964 316.712 50.587 316.649 48.9479V37.6426C316.647 37.5466 316.625 37.4521 316.586 37.3648C316.546 37.2774 316.489 37.1989 316.418 37.1341C316.348 37.0692 316.265 37.0193 316.174 36.9873C316.084 36.9553 315.988 36.9419 315.893 36.9479ZM334.498 36.5689C333.712 36.5271 332.928 36.6778 332.214 37.0079C331.499 37.3381 330.876 37.8378 330.398 38.4636C330.335 38.5268 330.335 38.5268 330.272 38.5268C330.255 38.5268 330.239 38.5202 330.227 38.5083C330.216 38.4965 330.209 38.4804 330.209 38.4636C329.8 37.8574 329.244 37.3654 328.593 37.0339C327.942 36.7024 327.218 36.5424 326.488 36.5689C325.284 36.5491 324.116 36.9766 323.208 37.7689C323.183 37.7928 323.154 37.8108 323.121 37.8217C323.088 37.8327 323.053 37.8362 323.019 37.8321C322.956 37.7689 322.956 37.7689 322.956 37.7057C322.966 37.6121 322.955 37.5174 322.924 37.4286C322.892 37.3397 322.841 37.2591 322.775 37.1925C322.708 37.1259 322.628 37.075 322.539 37.0436C322.45 37.0122 322.356 37.0011 322.262 37.011H320.686C320.502 37.0127 320.327 37.0864 320.197 37.2163C320.067 37.3462 319.994 37.522 319.992 37.7057V49.4532C319.982 49.5468 319.993 49.6416 320.024 49.7304C320.056 49.8192 320.107 49.8998 320.173 49.9665C320.24 50.0331 320.32 50.0839 320.409 50.1153C320.498 50.1467 320.592 50.1579 320.686 50.1479H322.262C322.446 50.1463 322.621 50.0725 322.751 49.9426C322.881 49.8127 322.954 49.6369 322.956 49.4532V42.2531C322.956 40.4847 324.028 39.3479 325.605 39.3479C327.686 39.3479 328.002 40.99 328.002 41.9373V49.4532C327.992 49.5468 328.003 49.6416 328.034 49.7304C328.065 49.8192 328.116 49.8998 328.183 49.9665C328.249 50.0331 328.33 50.0839 328.418 50.1153C328.507 50.1467 328.602 50.1579 328.695 50.1479H330.272C330.455 50.1463 330.631 50.0725 330.761 49.9426C330.89 49.8127 330.964 49.6369 330.966 49.4532V42.19C330.966 40.4847 332.038 39.2847 333.615 39.2847C335.696 39.2847 336.011 40.9268 336.011 41.8742V49.39C336.001 49.4837 336.012 49.5784 336.044 49.6672C336.075 49.756 336.126 49.8367 336.192 49.9033C336.259 49.9699 336.339 50.0208 336.428 50.0522C336.517 50.0836 336.611 50.0947 336.705 50.0848H338.282C338.375 50.0947 338.47 50.0836 338.558 50.0522C338.647 50.0208 338.728 49.9699 338.794 49.9033C338.861 49.8367 338.911 49.756 338.943 49.6672C338.974 49.5784 338.985 49.4837 338.975 49.39V41.6216C339.101 38.1479 336.768 36.5689 334.498 36.5689ZM345.03 41.9373C344.967 41.9373 344.967 41.8742 344.904 41.8742C344.841 41.8742 344.841 41.811 344.841 41.7479C344.98 41.0366 345.367 40.3981 345.933 39.9468C346.499 39.4954 347.208 39.2607 347.931 39.2847C349.634 39.2847 350.832 40.2321 351.084 41.7479C351.084 41.811 351.084 41.811 351.021 41.8742C350.958 41.9373 350.958 41.9373 350.895 41.9373H345.03ZM347.931 36.5689C344.841 36.5689 341.624 39.1584 341.624 43.5163C341.589 44.4719 341.75 45.4245 342.097 46.3153C342.444 47.2061 342.97 48.0161 343.642 48.6953C344.251 49.2904 344.971 49.7588 345.761 50.0732C346.551 50.3876 347.396 50.5418 348.246 50.5269C349.476 50.5651 350.689 50.2296 351.724 49.5644C352.76 48.8993 353.57 47.9357 354.049 46.8005C354.112 46.6164 354.112 46.4163 354.049 46.2321C354.008 46.1397 353.948 46.0577 353.871 45.992C353.795 45.9264 353.704 45.8789 353.607 45.8532L352.283 45.411C352.115 45.3495 351.93 45.3545 351.766 45.4249C351.602 45.4954 351.471 45.626 351.4 45.79C351.159 46.42 350.722 46.9562 350.155 47.3199C349.587 47.6836 348.919 47.8557 348.246 47.8111C347.386 47.8248 346.552 47.5143 345.909 46.9411C345.267 46.3678 344.863 45.5738 344.778 44.7163C344.778 44.6532 344.778 44.6531 344.841 44.59C344.875 44.5557 344.919 44.5335 344.967 44.5268H353.607C353.791 44.5252 353.966 44.4515 354.096 44.3215C354.226 44.1916 354.299 44.0158 354.301 43.8321V43.4531C354.238 39.1584 351.841 36.5057 347.931 36.5689ZM363.572 36.5689C362.954 36.5519 362.339 36.6607 361.765 36.8887C361.19 37.1167 360.668 37.4591 360.229 37.8952C360.166 37.9584 360.166 37.9584 360.04 37.9584C359.914 37.9584 359.977 37.8952 359.977 37.8321V37.7689C359.987 37.6752 359.976 37.5805 359.944 37.4917C359.913 37.4029 359.862 37.3222 359.796 37.2556C359.729 37.189 359.649 37.1381 359.56 37.1068C359.471 37.0754 359.377 37.0642 359.283 37.0742H357.77C357.676 37.0642 357.581 37.0754 357.493 37.1068C357.404 37.1381 357.323 37.189 357.257 37.2556C357.19 37.3222 357.14 37.4029 357.108 37.4917C357.077 37.5805 357.066 37.6752 357.076 37.7689V49.5163C357.066 49.61 357.077 49.7047 357.108 49.7935C357.14 49.8823 357.19 49.963 357.257 50.0296C357.323 50.0962 357.404 50.1471 357.493 50.1785C357.581 50.2099 357.676 50.221 357.77 50.2111H359.346C359.44 50.221 359.534 50.2099 359.623 50.1785C359.712 50.1471 359.792 50.0962 359.859 50.0296C359.925 49.963 359.976 49.8823 360.007 49.7935C360.039 49.7047 360.05 49.61 360.04 49.5163V42.5689C360.04 41.0531 360.734 39.3479 362.689 39.3479C364.455 39.3479 365.338 40.2952 365.338 42.2531V49.39C365.328 49.4837 365.339 49.5784 365.37 49.6672C365.402 49.756 365.452 49.8367 365.519 49.9033C365.585 49.9699 365.666 50.0208 365.755 50.0522C365.843 50.0836 365.938 50.0947 366.031 50.0848H367.608C367.702 50.0947 367.796 50.0836 367.885 50.0522C367.974 50.0208 368.054 49.9699 368.121 49.9033C368.187 49.8367 368.238 49.756 368.269 49.6672C368.301 49.5784 368.312 49.4837 368.302 49.39V41.8742C368.365 38.59 366.536 36.5689 363.572 36.5689ZM375.744 39.7268H377.636C377.729 39.7368 377.824 39.7256 377.913 39.6942C378.001 39.6628 378.082 39.612 378.148 39.5454C378.215 39.4787 378.266 39.3981 378.297 39.3093C378.328 39.2205 378.34 39.1257 378.33 39.0321V37.6426C378.34 37.5489 378.328 37.4542 378.297 37.3654C378.266 37.2766 378.215 37.1959 378.148 37.1293C378.082 37.0627 378.001 37.0118 377.913 36.9804C377.824 36.949 377.729 36.9379 377.636 36.9479H375.744C375.681 36.9479 375.555 36.8847 375.555 36.8215V33.7268C375.565 33.6331 375.553 33.5384 375.522 33.4496C375.491 33.3608 375.44 33.2801 375.373 33.2135C375.307 33.1469 375.226 33.096 375.138 33.0646C375.049 33.0332 374.954 33.0221 374.861 33.032H373.473C373.38 33.0221 373.285 33.0332 373.197 33.0646C373.108 33.096 373.027 33.1469 372.961 33.2135C372.894 33.2801 372.844 33.3608 372.812 33.4496C372.781 33.5384 372.77 33.6331 372.78 33.7268V35.3689C372.805 35.5906 372.78 35.8152 372.706 36.0259C372.633 36.2366 372.513 36.4279 372.355 36.5858C372.197 36.7436 372.006 36.8638 371.796 36.9374C371.586 37.011 371.361 37.0362 371.14 37.011H370.888C370.794 37.0011 370.699 37.0122 370.611 37.0436C370.522 37.075 370.442 37.1259 370.375 37.1925C370.309 37.2591 370.258 37.3397 370.226 37.4286C370.195 37.5174 370.184 37.6121 370.194 37.7057V39.0952C370.184 39.1889 370.195 39.2836 370.226 39.3724C370.258 39.4612 370.309 39.5419 370.375 39.6085C370.442 39.6751 370.522 39.726 370.611 39.7574C370.699 39.7888 370.794 39.7999 370.888 39.79H372.401C372.464 39.79 372.59 39.8531 372.59 39.9163V46.4216C372.59 48.8216 374.041 50.2742 376.438 50.2742C376.903 50.2826 377.368 50.2403 377.825 50.1479C377.983 50.1106 378.124 50.0223 378.226 49.8967C378.329 49.7712 378.387 49.6153 378.393 49.4532V48.19C378.403 48.0963 378.391 48.0016 378.36 47.9128C378.329 47.824 378.278 47.7433 378.211 47.6767C378.145 47.6101 378.064 47.5592 377.976 47.5278C377.887 47.4965 377.792 47.4853 377.699 47.4953H377.636C377.447 47.4953 377.321 47.5584 377.194 47.5584C376.122 47.5584 375.681 47.1795 375.681 46.1058V39.9163C375.555 39.79 375.681 39.7268 375.744 39.7268Z" fill="#5F7681"/>
<path fill-rule="evenodd" clip-rule="evenodd" d="M229.175 37.3265C228.951 37.3274 228.729 37.2838 228.522 37.1984C228.315 37.113 228.127 36.9874 227.969 36.8289C227.811 36.6704 227.685 36.4821 227.6 36.2748C227.515 36.0676 227.471 35.8454 227.472 35.6213C227.472 35.4318 227.535 35.3055 227.535 35.116C228.563 31.749 230.644 28.8018 233.471 26.7094C236.299 24.617 239.723 23.4901 243.239 23.4949C244.882 23.4998 246.516 23.7336 248.095 24.1896C248.52 24.3384 248.873 24.6423 249.083 25.0404C249.294 25.4386 249.346 25.9017 249.23 26.337C249.082 26.7623 248.778 27.1156 248.381 27.3264C247.983 27.5372 247.521 27.5899 247.086 27.4739C245.839 27.0958 244.542 26.9043 243.239 26.9054C240.45 26.886 237.73 27.7749 235.489 29.438C233.248 31.1012 231.607 33.4485 230.815 36.1265C230.698 36.4712 230.478 36.7714 230.184 36.9862C229.891 37.201 229.538 37.3198 229.175 37.3265Z" fill="#5F7681"/>
<path fill-rule="evenodd" clip-rule="evenodd" d="M255.032 29.1158C255.032 29.4531 254.932 29.7828 254.745 30.0632C254.558 30.3436 254.292 30.5622 253.981 30.6913C253.67 30.8203 253.327 30.8541 252.997 30.7883C252.667 30.7225 252.363 30.5601 252.125 30.3216C251.887 30.0831 251.725 29.7793 251.659 29.4485C251.594 29.1177 251.627 28.7748 251.756 28.4632C251.885 28.1516 252.103 27.8853 252.383 27.6979C252.663 27.5105 252.993 27.4105 253.329 27.4105C253.778 27.4186 254.207 27.6009 254.524 27.919C254.842 28.237 255.024 28.6661 255.032 29.1158ZM234.85 50.7791C234.85 51.1163 234.751 51.446 234.564 51.7265C234.376 52.0069 234.11 52.2255 233.799 52.3545C233.488 52.4836 233.146 52.5174 232.815 52.4516C232.485 52.3858 232.182 52.2234 231.944 51.9849C231.705 51.7464 231.543 51.4425 231.478 51.1117C231.412 50.781 231.446 50.4381 231.574 50.1265C231.703 49.8149 231.922 49.5486 232.202 49.3612C232.482 49.1738 232.811 49.0738 233.148 49.0738C233.372 49.073 233.593 49.1165 233.8 49.2019C234.007 49.2873 234.195 49.4129 234.354 49.5714C234.512 49.7299 234.637 49.9182 234.723 50.1255C234.808 50.3328 234.851 50.5549 234.85 50.7791Z" fill="#5F7681"/>
<path d="M41.3089 27.604C41.6884 27.6672 42.0047 27.7935 42.3843 27.8566C47.635 28.8672 51.3041 32.9093 51.9367 38.2777C52.5693 44.1515 48.8369 49.5831 43.1434 50.9725C42.1313 51.2252 41.1191 51.3515 40.1069 51.3515C35.3624 51.4146 30.6811 51.3515 25.9365 51.4146C25.9365 50.2146 25.9365 49.0778 25.9365 47.8778C27.1385 44.783 28.2139 44.0883 31.5667 44.0883C34.4767 44.0883 37.3235 44.0883 40.2334 44.0883C42.6374 44.0883 44.5984 42.3199 44.7882 40.0462C44.978 37.4567 43.3965 35.3725 40.9926 34.9935C38.5887 34.6146 36.3745 36.1304 35.7419 38.4672C35.6787 38.7198 35.6154 38.9725 35.5522 39.2251C35.4256 39.162 35.3624 39.162 35.2991 39.0988C33.5911 37.3935 31.883 35.6883 30.175 34.0461C29.8587 33.7304 29.9852 33.4777 30.175 33.1619C31.8198 30.6356 34.0972 28.8672 37.0072 28.1093C37.6398 27.9198 38.2724 27.7935 38.905 27.6672C39.7906 27.604 40.5498 27.604 41.3089 27.604Z" fill="#5F7681"/>
<path d="M156.254 50.7794C154.862 51.6636 153.407 52.0426 151.762 51.7268C149.295 51.2847 147.84 49.3899 147.84 46.5478C147.84 41.3688 147.84 36.253 147.84 31.074C147.84 30.5056 147.84 29.874 147.84 29.3056C147.84 29.1161 147.967 28.8003 148.157 28.7372C149.612 28.3582 151.067 27.9793 152.585 27.6003C152.585 28.0424 152.585 28.3582 152.585 28.674C152.585 34.2951 152.585 39.9162 152.585 45.5373C152.585 45.8531 152.585 46.232 152.648 46.5478C152.838 47.3057 153.281 47.6846 154.103 47.5583C154.546 47.4952 154.799 47.6215 154.926 48.0004C155.305 48.8215 155.748 49.6425 156.191 50.4636C156.254 50.5899 156.254 50.7162 156.254 50.7794Z" fill="#5F7681"/>
<path d="M113.363 27.6003C113.932 27.7266 114.438 27.8529 115.008 28.0424C118.044 29.0529 119.942 31.5792 120.005 34.7371C120.068 38.274 118.424 40.9266 115.387 42.1267C115.134 42.1898 114.944 42.3161 114.565 42.4424C116.589 45.4109 118.613 48.3162 120.701 51.4109C119.942 51.4109 119.436 51.4109 118.867 51.4109C117.665 51.4109 116.526 51.4109 115.324 51.4109C114.818 51.4109 114.502 51.2214 114.185 50.7793C112.604 48.3162 111.022 45.853 109.504 43.3267C109.251 42.8846 108.935 42.6951 108.365 42.6951C107.859 42.7582 107.29 42.7582 106.72 42.6951C106.151 42.6319 105.898 42.8214 105.898 43.453C105.961 45.7898 105.898 48.1267 105.898 50.4635C105.898 51.0951 105.708 51.3478 105.012 51.3478C103.81 51.2846 102.672 51.3478 101.47 51.3478C100.964 51.3478 100.774 51.2214 100.774 50.7162C100.774 43.8951 100.774 37.074 100.774 30.2529C100.774 28.9266 101.533 28.1055 102.672 27.5371C106.404 27.6003 109.883 27.6003 113.363 27.6003ZM109.377 38.0214C110.326 38.0214 111.212 38.0214 112.161 37.9582C113.742 37.8319 114.691 36.8214 114.755 35.1793C114.755 33.5371 113.806 32.4003 112.161 32.3371C110.326 32.274 108.428 32.3371 106.594 32.274C106.151 32.274 106.025 32.4634 106.025 32.8424C106.025 34.3582 106.025 35.874 106.025 37.3898C106.025 37.8951 106.214 38.0214 106.657 38.0214C107.606 38.0214 108.492 38.0214 109.377 38.0214Z" fill="#5F7681"/>
<path d="M128.861 51.8528C124.876 51.8528 121.65 49.7686 120.321 46.4212C118.866 42.8212 119.752 38.6528 122.409 36.1264C126.774 32.0212 136.263 32.9685 137.908 40.5475C139.363 46.8002 135.124 51.916 128.861 51.8528ZM128.988 38.2107C126.331 38.2107 124.56 40.0422 124.56 42.8212C124.56 45.537 126.331 47.4317 128.925 47.4317C131.518 47.4317 133.29 45.6002 133.29 42.8844C133.29 40.1054 131.582 38.2107 128.988 38.2107Z" fill="#5F7681"/>
<path d="M144.424 29.6215C144.424 30.0636 144.487 30.3794 144.487 30.7583C144.487 35.6846 144.487 40.5478 144.487 45.4742C144.487 45.79 144.487 46.1689 144.55 46.4847C144.614 47.3689 145.12 47.7479 146.005 47.6215C146.448 47.5584 146.701 47.6847 146.828 48.0637C147.144 48.8216 147.524 49.5794 147.967 50.2742C148.156 50.59 148.093 50.8426 147.777 51.0321C146.005 51.9795 144.171 52.2321 142.273 51.2847C140.755 50.5268 140.122 49.2005 139.869 47.6215C139.743 47.0531 139.743 46.4215 139.743 45.79C139.743 41.0531 139.743 36.3794 139.743 31.6425C139.743 30.8846 139.996 30.632 140.692 30.4425C141.83 30.253 143.032 29.9373 144.424 29.6215Z" fill="#5F7681"/>
<path d="M72.0539 27.6003C74.0783 32.7792 76.1026 38.0214 78.1902 43.2003C79.1391 45.6004 80.0881 48.0004 81.037 50.4004C81.1635 50.653 81.2268 50.9688 81.3533 51.3478C80.2146 51.3478 79.2024 51.3478 78.127 51.3478C76.0394 51.3478 76.0394 51.3478 75.2802 49.3267C74.9639 48.5056 74.6476 47.7477 74.3946 46.9267C74.2681 46.5477 74.015 46.3583 73.5722 46.3583C70.5989 46.3583 67.6257 46.3583 64.5892 46.3583C64.1463 46.3583 63.9566 46.4846 63.7668 46.9267C63.324 48.1898 62.8179 49.453 62.375 50.7162C62.1853 51.1583 61.9955 51.4109 61.4894 51.3478C59.9711 51.2846 58.4529 51.3478 56.8081 51.3478C56.9346 51.032 56.9979 50.7793 57.0611 50.5267C59.7814 43.5161 62.5648 36.5056 65.285 29.495C65.6646 28.5476 66.2972 27.9792 67.1196 27.5371C68.8276 27.6003 70.4092 27.6003 72.0539 27.6003ZM65.8544 41.6214C68.0685 41.6214 70.2194 41.6214 72.3702 41.6214C71.2948 38.7161 70.2194 35.874 69.0807 32.8424C67.942 35.874 66.8666 38.7161 65.8544 41.6214Z" fill="#5F7681"/>
<path d="M98.4965 27.6005C98.4965 27.8531 98.5597 28.1057 98.5597 28.3584C98.5597 35.7479 98.5597 43.1374 98.5597 50.5269C98.5597 51.2848 98.37 51.5374 97.6108 51.4743C96.6619 51.4111 95.7763 51.4743 94.8273 51.4743C94.3845 51.4743 94.1947 51.3479 94.1947 50.9058C94.1947 50.4006 94.0682 49.9585 94.005 49.4532C93.9417 49.4532 93.8784 49.4532 93.8152 49.5164C91.2848 52.8637 85.9709 52.6743 82.9343 49.5795C79.3285 45.8532 79.5815 39.0953 83.4404 35.7479C86.2872 33.2847 90.9052 33.1584 93.3724 35.5584C93.4356 35.6216 93.4989 35.6216 93.6254 35.6847C93.6254 35.4952 93.6887 35.3058 93.6887 35.1163C93.6887 33.79 93.7519 32.4636 93.6887 31.1373C93.6254 29.5584 94.1315 28.3584 95.6497 27.7268C96.6619 27.6005 97.5476 27.6005 98.4965 27.6005ZM85.4015 42.8847C85.4015 43.0742 85.4015 43.3269 85.4648 43.5795C85.6546 45.6637 87.2361 47.1795 89.3237 47.369C91.4745 47.5585 93.3091 46.4216 93.8784 44.4005C94.0682 43.7058 94.1315 42.8847 94.0682 42.19C93.9417 40.2953 92.7398 38.8426 90.9685 38.4005C87.8687 37.5795 85.4015 39.5374 85.4015 42.8847Z" fill="#5F7681"/>
</svg>
