<svg width="141" height="99" viewBox="0 0 141 99" fill="none" xmlns="http://www.w3.org/2000/svg">
<g filter="url(#filter0_d_1_115)">
<rect x="42.3064" y="10.9834" width="48" height="50.9538" transform="rotate(33.7473 42.3064 10.9834)" fill="url(#paint0_linear_1_115)" fill-opacity="0.05" shape-rendering="crispEdges"/>
</g>
<path d="M19.152 55.5V47.02H25.072C29.296 47.02 31.76 44.076 31.76 40.588C31.76 37.1 29.36 34.156 25.072 34.156H16.496V55.5H19.152ZM24.752 44.652H19.152V36.524H24.752C27.28 36.524 29.008 38.188 29.008 40.588C29.008 42.988 27.28 44.652 24.752 44.652ZM37.5813 55.5V44.556C38.2853 43.308 40.3013 42.092 41.7733 42.092C42.1573 42.092 42.4453 42.124 42.7333 42.188V39.724C40.6213 39.724 38.8293 40.908 37.5813 42.54V40.044H35.1813V55.5H37.5813Z" fill="url(#paint1_linear_1_115)"/>
<path d="M52.4958 55.884C57.1998 55.884 60.1438 52.236 60.1438 47.756C60.1438 43.276 57.1998 39.66 52.4958 39.66C47.7918 39.66 44.8478 43.276 44.8478 47.756C44.8478 52.236 47.7918 55.884 52.4958 55.884ZM52.4958 53.74C49.1998 53.74 47.3438 50.924 47.3438 47.756C47.3438 44.62 49.1998 41.804 52.4958 41.804C55.7918 41.804 57.6158 44.62 57.6158 47.756C57.6158 50.924 55.7918 53.74 52.4958 53.74Z" fill="url(#paint2_linear_1_115)"/>
<path d="M85.1123 55.5V44.332C85.1123 41.228 83.6083 39.66 80.7923 39.66C78.5522 39.66 76.4723 41.132 75.6083 42.54C75.1603 40.94 73.8163 39.66 71.4483 39.66C69.1763 39.66 67.0963 41.292 66.4563 42.284V40.044H64.0563V55.5H66.4563V44.204C67.2883 42.956 68.9523 41.804 70.5203 41.804C72.5363 41.804 73.3683 43.052 73.3683 45.004V55.5H75.7683V44.172C76.5683 42.956 78.2643 41.804 79.8643 41.804C81.8483 41.804 82.7123 43.052 82.7123 45.004V55.5H85.1123ZM101.964 55.5V44.876C101.964 41.132 99.244 39.66 95.98 39.66C93.452 39.66 91.468 40.492 89.804 42.22L90.924 43.884C92.3 42.412 93.804 41.74 95.66 41.74C97.9 41.74 99.564 42.924 99.564 45.004V47.788C98.316 46.348 96.556 45.676 94.444 45.676C91.82 45.676 89.036 47.308 89.036 50.764C89.036 54.124 91.82 55.884 94.444 55.884C96.524 55.884 98.284 55.148 99.564 53.74V55.5H101.964ZM95.308 54.156C93.068 54.156 91.5 52.748 91.5 50.796C91.5 48.812 93.068 47.404 95.308 47.404C97.004 47.404 98.636 48.044 99.564 49.324V52.236C98.636 53.516 97.004 54.156 95.308 54.156ZM112.983 61.772C116.759 61.772 120.343 60.172 120.343 55.052V40.044H117.943V42.38C116.695 40.684 114.839 39.66 112.759 39.66C108.695 39.66 105.879 42.732 105.879 47.692C105.879 52.684 108.727 55.692 112.759 55.692C114.935 55.692 116.823 54.508 117.943 52.94V55.148C117.943 58.54 115.543 59.788 112.983 59.788C110.775 59.788 109.239 59.212 107.959 57.676L106.743 59.468C108.567 61.26 110.359 61.772 112.983 61.772ZM113.335 53.58C110.231 53.58 108.375 51.084 108.375 47.692C108.375 44.268 110.231 41.804 113.335 41.804C115.255 41.804 117.111 42.956 117.943 44.3V51.052C117.111 52.396 115.255 53.58 113.335 53.58ZM132.126 55.884C134.654 55.884 136.734 55.052 138.27 53.516L137.118 51.948C135.902 53.196 134.11 53.9 132.35 53.9C129.022 53.9 126.974 51.468 126.782 48.556H139.294V47.948C139.294 43.308 136.542 39.66 131.87 39.66C127.454 39.66 124.254 43.276 124.254 47.756C124.254 52.588 127.55 55.884 132.126 55.884ZM136.926 46.796H126.782C126.91 44.428 128.542 41.644 131.838 41.644C135.358 41.644 136.894 44.492 136.926 46.796Z" fill="url(#paint3_linear_1_115)"/>
<defs>
<filter id="filter0_d_1_115" x="0" y="0.983398" width="96.2183" height="97.0334" filterUnits="userSpaceOnUse" color-interpolation-filters="sRGB">
<feFlood flood-opacity="0" result="BackgroundImageFix"/>
<feColorMatrix in="SourceAlpha" type="matrix" values="0 0 0 0 0 0 0 0 0 0 0 0 0 0 0 0 0 0 127 0" result="hardAlpha"/>
<feOffset dy="4"/>
<feGaussianBlur stdDeviation="7"/>
<feComposite in2="hardAlpha" operator="out"/>
<feColorMatrix type="matrix" values="0 0 0 0 0 0 0 0 0 0.286275 0 0 0 0 0.607843 0 0 0 0.2 0"/>
<feBlend mode="normal" in2="BackgroundImageFix" result="effect1_dropShadow_1_115"/>
<feBlend mode="normal" in="SourceGraphic" in2="effect1_dropShadow_1_115" result="shape"/>
</filter>
<linearGradient id="paint0_linear_1_115" x1="66.3064" y1="10.9834" x2="66.3064" y2="61.9372" gradientUnits="userSpaceOnUse">
<stop stop-color="#7594FB"/>
<stop offset="0.979744" stop-color="#73B6F6"/>
</linearGradient>
<linearGradient id="paint1_linear_1_115" x1="27.6071" y1="69.5" x2="77.5" y2="69.5" gradientUnits="userSpaceOnUse">
<stop offset="0.4375" stop-color="#476BCC"/>
<stop offset="1"/>
</linearGradient>
<linearGradient id="paint2_linear_1_115" x1="27.6071" y1="69.5" x2="77.5" y2="69.5" gradientUnits="userSpaceOnUse">
<stop offset="0.4375" stop-color="#476BCC"/>
<stop offset="1" stop-color="#272727"/>
</linearGradient>
<linearGradient id="paint3_linear_1_115" x1="27.6071" y1="69.5" x2="77.5" y2="69.5" gradientUnits="userSpaceOnUse">
<stop offset="0.046875" stop-color="#5A5A5A"/>
<stop offset="0.854167" stop-color="#476BCC"/>
</linearGradient>
</defs>
</svg>
